<?xml version="1.0" encoding="utf-8"?>
<!-- Generator: Adobe Illustrator 18.1.0, SVG Export Plug-In . SVG Version: 6.00 Build 0)  -->
<svg version="1.1" id="圖層_1" xmlns="http://www.w3.org/2000/svg" xmlns:xlink="http://www.w3.org/1999/xlink" x="0px" y="0px"
	 viewBox="0 0 595.3 841.9" enable-background="new 0 0 595.3 841.9" xml:space="preserve">
<g>
	<path fill="#AAAAAA" d="M464.9,798c-119.1,0-235.3,0-354.3,0c-17-11.3-22.7-28.3-25.5-48.2c-19.8-161.6-45.4-326-68-487.6
		c-8.5-51,0-59.5,51-59.5c136.1,0,269.3,0,405.4,0c-99.2-17-195.6-31.2-294.8-42.5C130.4,151.7,82.2,146,34,137.5
		c-22.7-2.8-36.9-14.2-34-39.7s19.8-31.2,42.5-31.2c8.5,0,17,0,22.7,2.8c53.9,8.5,107.7,14.2,158.7,22.7
		c19.8,2.8,31.2,2.8,39.7-19.8c5.7-22.7,25.5-31.2,48.2-28.3c19.8,2.8,36.9,17,36.9,36.9c0,25.5,14.2,31.2,36.9,34
		c56.7,5.7,113.4,14.2,170.1,22.7c19.8,2.8,34,8.5,39.7,28.3c5.7,17-2.8,31.2-17,39.7c-5.7,5.7-11.3,8.5-11.3,19.8
		c-25.5,170.1-51,343-73.7,513.1C487.6,761.1,484.7,783.8,464.9,798z M306.1,486.1c0-53.9,0-107.7,0-161.6c0-11.3-2.8-25.5-17-25.5
		c-17,0-19.8,14.2-19.8,28.3c0,2.8,0,8.5,0,11.3c0,99.2,0,198.4,0,300.5c0,8.5,0,19.8,2.8,28.3c2.8,5.7,8.5,11.3,17,11.3
		c5.7,0,11.3-5.7,11.3-11.3c5.7-8.5,2.8-19.8,2.8-28.3C306.1,585.4,306.1,537.2,306.1,486.1z M445,327.4c0-8.5,5.7-25.5-11.3-28.3
		c-19.8-2.8-17,17-19.8,28.3c-5.7,48.2-11.3,96.4-17,144.6c-5.7,59.5-11.3,116.2-17,175.7c0,11.3,0,22.7,14.2,25.5
		c14.2,2.8,14.2-8.5,17-19.8c0-2.8,2.8-8.5,2.8-11.3C425.2,540,436.5,435.1,445,327.4z M192.8,639.2c-8.5-87.9-17-178.6-25.5-269.3
		c-2.8-19.8-2.8-36.9-5.7-56.7c-2.8-8.5-8.5-14.2-17-14.2s-11.3,8.5-11.3,17c0,8.5,0,17,0,22.7c5.7,70.9,14.2,141.7,19.8,209.8
		c2.8,34,5.7,68,11.3,102c0,11.3,2.8,22.7,17,22.7c14.2,0,14.2-11.3,14.2-22.7C192.8,647.7,192.8,644.9,192.8,639.2z"/>
</g>
</svg>
