<?xml version="1.0" encoding="utf-8"?>
<!-- Generator: Adobe Illustrator 18.1.0, SVG Export Plug-In . SVG Version: 6.00 Build 0)  -->
<svg version="1.1" id="圖層_1" xmlns="http://www.w3.org/2000/svg" xmlns:xlink="http://www.w3.org/1999/xlink" x="0px" y="0px"
	 viewBox="0 0 595.3 841.9" enable-background="new 0 0 595.3 841.9" xml:space="preserve">
<g>
	<path fill="#AAAAAA" d="M41.7,490.9c0-80.4,0-163.7,0-244.1c0-29.8,11.9-41.7,41.7-41.7c145.8,0,288.7,0,434.6,0
		c29.8,0,38.7,11.9,38.7,38.7c0,160.7,0,321.5,0,482.2c0,74.4-32.7,104.2-107.2,104.2c-101.2,0-199.4,0-300.6,0
		c-71.4,0-104.2-32.7-104.2-104.2C41.7,648.6,41.7,568.3,41.7,490.9z M276.8,514.7c0,62.5,0,125,0,187.5c0,17.9,0,38.7,20.8,41.7
		c23.8,0,23.8-20.8,23.8-38.7c0-128,0-253,0-381c0-17.9,0-35.7-20.8-35.7c-23.8,0-23.8,20.8-23.8,38.7
		C273.8,389.7,276.8,452.2,276.8,514.7z M422.6,514.7c0,65.5,0,128,0,193.5c0,14.9-3,35.7,20.8,35.7c20.8,0,20.8-17.9,20.8-32.7
		c0-131,0-258.9,0-389.9c0-14.9,0-32.7-20.8-35.7c-23.8,0-20.8,20.8-20.8,35.7C422.6,386.7,422.6,452.2,422.6,514.7z M133.9,514.7
		c0,65.5,0,128,0,193.5c0,14.9-3,35.7,20.8,35.7c20.8,0,20.8-20.8,20.8-35.7c0-128,0-256,0-384c0-17.9,0-35.7-23.8-35.7
		c-20.8,0-17.9,20.8-17.9,35.7C133.9,386.7,133.9,449.2,133.9,514.7z"/>
	<path fill="#AAAAAA" d="M297.6,184.3c-86.3,0-172.6,0-258.9,0c-38.7,0-47.6-11.9-29.8-47.6C23.8,104,50.6,83.1,86.3,83.1
		c139.9,0,279.8,0,419.7,0c41.7,0,68.5,23.8,83.3,62.5c8.9,23.8,6,38.7-26.8,38.7C476.2,184.3,386.9,184.3,297.6,184.3z"/>
	<path fill="#AAAAAA" d="M294.7,65.3c-23.8,0-47.6,0-71.4,0c-8.9,0-17.9,0-23.8-8.9c-3-8.9,3-17.9,8.9-26.8
		c8.9-8.9,20.8-17.9,32.7-17.9c38.7,0,77.4,0,113.1,0c14.9,0,26.8,8.9,32.7,20.8c11.9,17.9,8.9,32.7-14.9,32.7
		S321.5,65.3,294.7,65.3L294.7,65.3z"/>
</g>
</svg>
