<?xml version="1.0" encoding="utf-8"?>
<!-- Generator: Adobe Illustrator 18.1.0, SVG Export Plug-In . SVG Version: 6.00 Build 0)  -->
<svg version="1.1" id="圖層_1" xmlns="http://www.w3.org/2000/svg" xmlns:xlink="http://www.w3.org/1999/xlink" x="0px" y="0px"
	 viewBox="-0.6 236.8 596.1 368.2" enable-background="new -0.6 236.8 596.1 368.2" xml:space="preserve">
<g>
	<path fill="#AAAAAA" d="M205.5,304.9c0,53.7,0,107.9,0,162.9c8.8,0,16.7,0,25.7,0c0-77.1,0-153.7,0-231c121.7,0,242.3,0,363.8,0
		c0,83.1,0,165.9,0,250.4c-129.1,0-258.5,0-388.6,0c0,8.1,0,14.8,0,22.7c83.8,0,167.8,0,251.1,0c-6.5,15.3-12.5,29.9-19.4,45.8
		c-75.7,0-153.9,0-231.9,0c-9.3-41.4-31.5-63-65.5-63.4c-33.8-0.5-55.8,20.4-66.7,63.9c-22,0-44.4,0-66.7,0c-2.3,0-4.4-0.7-7.9-1.2
		c0-16.2,0-31.9,0-47.7c0-28.5-0.2-57.2,0.2-85.6c0-5.1,1.6-10.9,4.2-15c20.1-32.4,40.7-64.6,61.6-96.5c2.1-3.2,6.9-6.9,10.4-6.9
		c42.1-0.5,84-0.2,126.1,0C203.2,303.5,203.9,303.9,205.5,304.9z M183.5,328c-32.6,0-64.6-0.2-96.5,0.2c-3,0-6.7,3.2-8.6,6
		c-15.3,23.6-30.3,47.2-45.4,71.1c-2.1,3.5-2.8,7.9-4.4,12.7c52.8,0,103.5,0,154.6,0C183.5,388.2,183.5,359,183.5,328z"/>
	<path fill="#AAAAAA" d="M554.1,556.2c0.5,26.2-20.8,47.9-47.2,48.6c-25.5,0.7-47.9-21.5-48.4-47.4c-0.2-25.9,21.8-48.1,47.7-47.9
		C532.1,509.5,553.6,530.8,554.1,556.2z"/>
	<path fill="#AAAAAA" d="M141.6,509.9c26.6,0.9,47.7,22.7,46.5,48.6c-1.2,26.6-23.1,47.4-49.1,46.5c-26.2-0.9-47-23.4-46.1-49.5
		C94,529.6,116,509,141.6,509.9z"/>
	<path fill="#AAAAAA" d="M574.2,555.5c-6.5-15.5-12.3-29.6-18.3-44c11.8,0,25.2,0,39.6,0c0,14.3,0,28.7,0,44
		C587.6,555.5,580.2,555.5,574.2,555.5z"/>
</g>
</svg>
